<?xml version="1.0" encoding="utf-8" standalone="no"?>
<!DOCTYPE svg PUBLIC "-//W3C//DTD SVG 1.1//EN"
  "http://www.w3.org/Graphics/SVG/1.1/DTD/svg11.dtd">
<svg xmlns:xlink="http://www.w3.org/1999/xlink" width="1080pt" height="288pt" viewBox="0 0 1080 288" xmlns="http://www.w3.org/2000/svg" version="1.1">
 <metadata>
  <rdf:RDF xmlns:dc="http://purl.org/dc/elements/1.1/" xmlns:cc="http://creativecommons.org/ns#" xmlns:rdf="http://www.w3.org/1999/02/22-rdf-syntax-ns#">
   <cc:Work>
    <dc:type rdf:resource="http://purl.org/dc/dcmitype/StillImage"/>
    <dc:date>2022-07-01T03:49:13.431345</dc:date>
    <dc:format>image/svg+xml</dc:format>
    <dc:creator>
     <cc:Agent>
      <dc:title>Matplotlib v3.5.2, https://matplotlib.org/</dc:title>
     </cc:Agent>
    </dc:creator>
   </cc:Work>
  </rdf:RDF>
 </metadata>
 <defs>
  <style type="text/css">*{stroke-linejoin: round; stroke-linecap: butt}</style>
 </defs>
 <g id="figure_1">
  <g id="patch_1">
   <path d="M 0 288 
L 1080 288 
L 1080 0 
L 0 0 
z
" style="fill: #f0f0f0"/>
  </g>
  <g id="axes_1">
   <g id="patch_2">
    <path d="M 34.63 255.8 
L 1064.88 255.8 
L 1064.88 43.92 
L 34.63 43.92 
z
" style="fill: #f0f0f0"/>
   </g>
   <g id="matplotlib.axis_1">
    <g id="xtick_1">
     <g id="text_1">
      <!-- SepalLengthCm -->
      <g style="fill: #262626" transform="translate(123.971094 270.807656)scale(0.11 -0.11)">
       <defs>
        <path id="ArialMT-53" d="M 288 1472 
L 859 1522 
Q 900 1178 1048 958 
Q 1197 738 1509 602 
Q 1822 466 2213 466 
Q 2559 466 2825 569 
Q 3091 672 3220 851 
Q 3350 1031 3350 1244 
Q 3350 1459 3225 1620 
Q 3100 1781 2813 1891 
Q 2628 1963 1997 2114 
Q 1366 2266 1113 2400 
Q 784 2572 623 2826 
Q 463 3081 463 3397 
Q 463 3744 659 4045 
Q 856 4347 1234 4503 
Q 1613 4659 2075 4659 
Q 2584 4659 2973 4495 
Q 3363 4331 3572 4012 
Q 3781 3694 3797 3291 
L 3216 3247 
Q 3169 3681 2898 3903 
Q 2628 4125 2100 4125 
Q 1550 4125 1298 3923 
Q 1047 3722 1047 3438 
Q 1047 3191 1225 3031 
Q 1400 2872 2139 2705 
Q 2878 2538 3153 2413 
Q 3553 2228 3743 1945 
Q 3934 1663 3934 1294 
Q 3934 928 3725 604 
Q 3516 281 3123 101 
Q 2731 -78 2241 -78 
Q 1619 -78 1198 103 
Q 778 284 539 648 
Q 300 1013 288 1472 
z
" transform="scale(0.015625)"/>
        <path id="ArialMT-65" d="M 2694 1069 
L 3275 997 
Q 3138 488 2766 206 
Q 2394 -75 1816 -75 
Q 1088 -75 661 373 
Q 234 822 234 1631 
Q 234 2469 665 2931 
Q 1097 3394 1784 3394 
Q 2450 3394 2872 2941 
Q 3294 2488 3294 1666 
Q 3294 1616 3291 1516 
L 816 1516 
Q 847 969 1125 678 
Q 1403 388 1819 388 
Q 2128 388 2347 550 
Q 2566 713 2694 1069 
z
M 847 1978 
L 2700 1978 
Q 2663 2397 2488 2606 
Q 2219 2931 1791 2931 
Q 1403 2931 1139 2672 
Q 875 2413 847 1978 
z
" transform="scale(0.015625)"/>
        <path id="ArialMT-70" d="M 422 -1272 
L 422 3319 
L 934 3319 
L 934 2888 
Q 1116 3141 1344 3267 
Q 1572 3394 1897 3394 
Q 2322 3394 2647 3175 
Q 2972 2956 3137 2557 
Q 3303 2159 3303 1684 
Q 3303 1175 3120 767 
Q 2938 359 2589 142 
Q 2241 -75 1856 -75 
Q 1575 -75 1351 44 
Q 1128 163 984 344 
L 984 -1272 
L 422 -1272 
z
M 931 1641 
Q 931 1000 1190 694 
Q 1450 388 1819 388 
Q 2194 388 2461 705 
Q 2728 1022 2728 1688 
Q 2728 2322 2467 2637 
Q 2206 2953 1844 2953 
Q 1484 2953 1207 2617 
Q 931 2281 931 1641 
z
" transform="scale(0.015625)"/>
        <path id="ArialMT-61" d="M 2588 409 
Q 2275 144 1986 34 
Q 1697 -75 1366 -75 
Q 819 -75 525 192 
Q 231 459 231 875 
Q 231 1119 342 1320 
Q 453 1522 633 1644 
Q 813 1766 1038 1828 
Q 1203 1872 1538 1913 
Q 2219 1994 2541 2106 
Q 2544 2222 2544 2253 
Q 2544 2597 2384 2738 
Q 2169 2928 1744 2928 
Q 1347 2928 1158 2789 
Q 969 2650 878 2297 
L 328 2372 
Q 403 2725 575 2942 
Q 747 3159 1072 3276 
Q 1397 3394 1825 3394 
Q 2250 3394 2515 3294 
Q 2781 3194 2906 3042 
Q 3031 2891 3081 2659 
Q 3109 2516 3109 2141 
L 3109 1391 
Q 3109 606 3145 398 
Q 3181 191 3288 0 
L 2700 0 
Q 2613 175 2588 409 
z
M 2541 1666 
Q 2234 1541 1622 1453 
Q 1275 1403 1131 1340 
Q 988 1278 909 1158 
Q 831 1038 831 891 
Q 831 666 1001 516 
Q 1172 366 1500 366 
Q 1825 366 2078 508 
Q 2331 650 2450 897 
Q 2541 1088 2541 1459 
L 2541 1666 
z
" transform="scale(0.015625)"/>
        <path id="ArialMT-6c" d="M 409 0 
L 409 4581 
L 972 4581 
L 972 0 
L 409 0 
z
" transform="scale(0.015625)"/>
        <path id="ArialMT-4c" d="M 469 0 
L 469 4581 
L 1075 4581 
L 1075 541 
L 3331 541 
L 3331 0 
L 469 0 
z
" transform="scale(0.015625)"/>
        <path id="ArialMT-6e" d="M 422 0 
L 422 3319 
L 928 3319 
L 928 2847 
Q 1294 3394 1984 3394 
Q 2284 3394 2536 3286 
Q 2788 3178 2913 3003 
Q 3038 2828 3088 2588 
Q 3119 2431 3119 2041 
L 3119 0 
L 2556 0 
L 2556 2019 
Q 2556 2363 2490 2533 
Q 2425 2703 2258 2804 
Q 2091 2906 1866 2906 
Q 1506 2906 1245 2678 
Q 984 2450 984 1813 
L 984 0 
L 422 0 
z
" transform="scale(0.015625)"/>
        <path id="ArialMT-67" d="M 319 -275 
L 866 -356 
Q 900 -609 1056 -725 
Q 1266 -881 1628 -881 
Q 2019 -881 2231 -725 
Q 2444 -569 2519 -288 
Q 2563 -116 2559 434 
Q 2191 0 1641 0 
Q 956 0 581 494 
Q 206 988 206 1678 
Q 206 2153 378 2554 
Q 550 2956 876 3175 
Q 1203 3394 1644 3394 
Q 2231 3394 2613 2919 
L 2613 3319 
L 3131 3319 
L 3131 450 
Q 3131 -325 2973 -648 
Q 2816 -972 2473 -1159 
Q 2131 -1347 1631 -1347 
Q 1038 -1347 672 -1080 
Q 306 -813 319 -275 
z
M 784 1719 
Q 784 1066 1043 766 
Q 1303 466 1694 466 
Q 2081 466 2343 764 
Q 2606 1063 2606 1700 
Q 2606 2309 2336 2618 
Q 2066 2928 1684 2928 
Q 1309 2928 1046 2623 
Q 784 2319 784 1719 
z
" transform="scale(0.015625)"/>
        <path id="ArialMT-74" d="M 1650 503 
L 1731 6 
Q 1494 -44 1306 -44 
Q 1000 -44 831 53 
Q 663 150 594 308 
Q 525 466 525 972 
L 525 2881 
L 113 2881 
L 113 3319 
L 525 3319 
L 525 4141 
L 1084 4478 
L 1084 3319 
L 1650 3319 
L 1650 2881 
L 1084 2881 
L 1084 941 
Q 1084 700 1114 631 
Q 1144 563 1211 522 
Q 1278 481 1403 481 
Q 1497 481 1650 503 
z
" transform="scale(0.015625)"/>
        <path id="ArialMT-68" d="M 422 0 
L 422 4581 
L 984 4581 
L 984 2938 
Q 1378 3394 1978 3394 
Q 2347 3394 2619 3248 
Q 2891 3103 3008 2847 
Q 3125 2591 3125 2103 
L 3125 0 
L 2563 0 
L 2563 2103 
Q 2563 2525 2380 2717 
Q 2197 2909 1863 2909 
Q 1613 2909 1392 2779 
Q 1172 2650 1078 2428 
Q 984 2206 984 1816 
L 984 0 
L 422 0 
z
" transform="scale(0.015625)"/>
        <path id="ArialMT-43" d="M 3763 1606 
L 4369 1453 
Q 4178 706 3683 314 
Q 3188 -78 2472 -78 
Q 1731 -78 1267 223 
Q 803 525 561 1097 
Q 319 1669 319 2325 
Q 319 3041 592 3573 
Q 866 4106 1370 4382 
Q 1875 4659 2481 4659 
Q 3169 4659 3637 4309 
Q 4106 3959 4291 3325 
L 3694 3184 
Q 3534 3684 3231 3912 
Q 2928 4141 2469 4141 
Q 1941 4141 1586 3887 
Q 1231 3634 1087 3207 
Q 944 2781 944 2328 
Q 944 1744 1114 1308 
Q 1284 872 1643 656 
Q 2003 441 2422 441 
Q 2931 441 3284 734 
Q 3638 1028 3763 1606 
z
" transform="scale(0.015625)"/>
        <path id="ArialMT-6d" d="M 422 0 
L 422 3319 
L 925 3319 
L 925 2853 
Q 1081 3097 1340 3245 
Q 1600 3394 1931 3394 
Q 2300 3394 2536 3241 
Q 2772 3088 2869 2813 
Q 3263 3394 3894 3394 
Q 4388 3394 4653 3120 
Q 4919 2847 4919 2278 
L 4919 0 
L 4359 0 
L 4359 2091 
Q 4359 2428 4304 2576 
Q 4250 2725 4106 2815 
Q 3963 2906 3769 2906 
Q 3419 2906 3187 2673 
Q 2956 2441 2956 1928 
L 2956 0 
L 2394 0 
L 2394 2156 
Q 2394 2531 2256 2718 
Q 2119 2906 1806 2906 
Q 1569 2906 1367 2781 
Q 1166 2656 1075 2415 
Q 984 2175 984 1722 
L 984 0 
L 422 0 
z
" transform="scale(0.015625)"/>
       </defs>
       <use xlink:href="#ArialMT-53"/>
       <use xlink:href="#ArialMT-65" x="66.699219"/>
       <use xlink:href="#ArialMT-70" x="122.314453"/>
       <use xlink:href="#ArialMT-61" x="177.929688"/>
       <use xlink:href="#ArialMT-6c" x="233.544922"/>
       <use xlink:href="#ArialMT-4c" x="255.761719"/>
       <use xlink:href="#ArialMT-65" x="311.376953"/>
       <use xlink:href="#ArialMT-6e" x="366.992188"/>
       <use xlink:href="#ArialMT-67" x="422.607422"/>
       <use xlink:href="#ArialMT-74" x="478.222656"/>
       <use xlink:href="#ArialMT-68" x="506.005859"/>
       <use xlink:href="#ArialMT-43" x="561.621094"/>
       <use xlink:href="#ArialMT-6d" x="633.837891"/>
      </g>
     </g>
    </g>
    <g id="xtick_2">
     <g id="text_2">
      <!-- SepalWidthCm -->
      <g style="fill: #262626" transform="translate(384.295625 270.807656)scale(0.11 -0.11)">
       <defs>
        <path id="ArialMT-57" d="M 1294 0 
L 78 4581 
L 700 4581 
L 1397 1578 
Q 1509 1106 1591 641 
Q 1766 1375 1797 1488 
L 2669 4581 
L 3400 4581 
L 4056 2263 
Q 4303 1400 4413 641 
Q 4500 1075 4641 1638 
L 5359 4581 
L 5969 4581 
L 4713 0 
L 4128 0 
L 3163 3491 
Q 3041 3928 3019 4028 
Q 2947 3713 2884 3491 
L 1913 0 
L 1294 0 
z
" transform="scale(0.015625)"/>
        <path id="ArialMT-69" d="M 425 3934 
L 425 4581 
L 988 4581 
L 988 3934 
L 425 3934 
z
M 425 0 
L 425 3319 
L 988 3319 
L 988 0 
L 425 0 
z
" transform="scale(0.015625)"/>
        <path id="ArialMT-64" d="M 2575 0 
L 2575 419 
Q 2259 -75 1647 -75 
Q 1250 -75 917 144 
Q 584 363 401 755 
Q 219 1147 219 1656 
Q 219 2153 384 2558 
Q 550 2963 881 3178 
Q 1213 3394 1622 3394 
Q 1922 3394 2156 3267 
Q 2391 3141 2538 2938 
L 2538 4581 
L 3097 4581 
L 3097 0 
L 2575 0 
z
M 797 1656 
Q 797 1019 1065 703 
Q 1334 388 1700 388 
Q 2069 388 2326 689 
Q 2584 991 2584 1609 
Q 2584 2291 2321 2609 
Q 2059 2928 1675 2928 
Q 1300 2928 1048 2622 
Q 797 2316 797 1656 
z
" transform="scale(0.015625)"/>
       </defs>
       <use xlink:href="#ArialMT-53"/>
       <use xlink:href="#ArialMT-65" x="66.699219"/>
       <use xlink:href="#ArialMT-70" x="122.314453"/>
       <use xlink:href="#ArialMT-61" x="177.929688"/>
       <use xlink:href="#ArialMT-6c" x="233.544922"/>
       <use xlink:href="#ArialMT-57" x="255.761719"/>
       <use xlink:href="#ArialMT-69" x="350.146484"/>
       <use xlink:href="#ArialMT-64" x="372.363281"/>
       <use xlink:href="#ArialMT-74" x="427.978516"/>
       <use xlink:href="#ArialMT-68" x="455.761719"/>
       <use xlink:href="#ArialMT-43" x="511.376953"/>
       <use xlink:href="#ArialMT-6d" x="583.59375"/>
      </g>
     </g>
    </g>
    <g id="xtick_3">
     <g id="text_3">
      <!-- PetalLengthCm -->
      <g style="fill: #262626" transform="translate(640.626641 270.807656)scale(0.11 -0.11)">
       <defs>
        <path id="ArialMT-50" d="M 494 0 
L 494 4581 
L 2222 4581 
Q 2678 4581 2919 4538 
Q 3256 4481 3484 4323 
Q 3713 4166 3852 3881 
Q 3991 3597 3991 3256 
Q 3991 2672 3619 2267 
Q 3247 1863 2275 1863 
L 1100 1863 
L 1100 0 
L 494 0 
z
M 1100 2403 
L 2284 2403 
Q 2872 2403 3119 2622 
Q 3366 2841 3366 3238 
Q 3366 3525 3220 3729 
Q 3075 3934 2838 4000 
Q 2684 4041 2272 4041 
L 1100 4041 
L 1100 2403 
z
" transform="scale(0.015625)"/>
       </defs>
       <use xlink:href="#ArialMT-50"/>
       <use xlink:href="#ArialMT-65" x="66.699219"/>
       <use xlink:href="#ArialMT-74" x="122.314453"/>
       <use xlink:href="#ArialMT-61" x="150.097656"/>
       <use xlink:href="#ArialMT-6c" x="205.712891"/>
       <use xlink:href="#ArialMT-4c" x="227.929688"/>
       <use xlink:href="#ArialMT-65" x="283.544922"/>
       <use xlink:href="#ArialMT-6e" x="339.160156"/>
       <use xlink:href="#ArialMT-67" x="394.775391"/>
       <use xlink:href="#ArialMT-74" x="450.390625"/>
       <use xlink:href="#ArialMT-68" x="478.173828"/>
       <use xlink:href="#ArialMT-43" x="533.789062"/>
       <use xlink:href="#ArialMT-6d" x="606.005859"/>
      </g>
     </g>
    </g>
    <g id="xtick_4">
     <g id="text_4">
      <!-- PetalWidthCm -->
      <g style="fill: #262626" transform="translate(900.951172 270.673594)scale(0.11 -0.11)">
       <use xlink:href="#ArialMT-50"/>
       <use xlink:href="#ArialMT-65" x="66.699219"/>
       <use xlink:href="#ArialMT-74" x="122.314453"/>
       <use xlink:href="#ArialMT-61" x="150.097656"/>
       <use xlink:href="#ArialMT-6c" x="205.712891"/>
       <use xlink:href="#ArialMT-57" x="227.929688"/>
       <use xlink:href="#ArialMT-69" x="322.314453"/>
       <use xlink:href="#ArialMT-64" x="344.53125"/>
       <use xlink:href="#ArialMT-74" x="400.146484"/>
       <use xlink:href="#ArialMT-68" x="427.929688"/>
       <use xlink:href="#ArialMT-43" x="483.544922"/>
       <use xlink:href="#ArialMT-6d" x="555.761719"/>
      </g>
     </g>
    </g>
   </g>
   <g id="matplotlib.axis_2">
    <g id="ytick_1">
     <g id="line2d_1">
      <path d="M 34.63 241.630007 
L 1064.88 241.630007 
" clip-path="url(#pd2b5037cfa)" style="fill: none; stroke: #cbcbcb"/>
     </g>
     <g id="text_5">
      <!-- −3 -->
      <g style="fill: #262626" transform="translate(15.088281 245.566804)scale(0.11 -0.11)">
       <defs>
        <path id="ArialMT-2212" d="M 3381 1997 
L 356 1997 
L 356 2522 
L 3381 2522 
L 3381 1997 
z
" transform="scale(0.015625)"/>
        <path id="ArialMT-33" d="M 269 1209 
L 831 1284 
Q 928 806 1161 595 
Q 1394 384 1728 384 
Q 2125 384 2398 659 
Q 2672 934 2672 1341 
Q 2672 1728 2419 1979 
Q 2166 2231 1775 2231 
Q 1616 2231 1378 2169 
L 1441 2663 
Q 1497 2656 1531 2656 
Q 1891 2656 2178 2843 
Q 2466 3031 2466 3422 
Q 2466 3731 2256 3934 
Q 2047 4138 1716 4138 
Q 1388 4138 1169 3931 
Q 950 3725 888 3313 
L 325 3413 
Q 428 3978 793 4289 
Q 1159 4600 1703 4600 
Q 2078 4600 2393 4439 
Q 2709 4278 2876 4000 
Q 3044 3722 3044 3409 
Q 3044 3113 2884 2869 
Q 2725 2625 2413 2481 
Q 2819 2388 3044 2092 
Q 3269 1797 3269 1353 
Q 3269 753 2831 336 
Q 2394 -81 1725 -81 
Q 1122 -81 723 278 
Q 325 638 269 1209 
z
" transform="scale(0.015625)"/>
       </defs>
       <use xlink:href="#ArialMT-2212"/>
       <use xlink:href="#ArialMT-33" x="58.398438"/>
      </g>
     </g>
    </g>
    <g id="ytick_2">
     <g id="line2d_2">
      <path d="M 34.63 214.126951 
L 1064.88 214.126951 
" clip-path="url(#pd2b5037cfa)" style="fill: none; stroke: #cbcbcb"/>
     </g>
     <g id="text_6">
      <!-- −2 -->
      <g style="fill: #262626" transform="translate(15.088281 218.063747)scale(0.11 -0.11)">
       <defs>
        <path id="ArialMT-32" d="M 3222 541 
L 3222 0 
L 194 0 
Q 188 203 259 391 
Q 375 700 629 1000 
Q 884 1300 1366 1694 
Q 2113 2306 2375 2664 
Q 2638 3022 2638 3341 
Q 2638 3675 2398 3904 
Q 2159 4134 1775 4134 
Q 1369 4134 1125 3890 
Q 881 3647 878 3216 
L 300 3275 
Q 359 3922 746 4261 
Q 1134 4600 1788 4600 
Q 2447 4600 2831 4234 
Q 3216 3869 3216 3328 
Q 3216 3053 3103 2787 
Q 2991 2522 2730 2228 
Q 2469 1934 1863 1422 
Q 1356 997 1212 845 
Q 1069 694 975 541 
L 3222 541 
z
" transform="scale(0.015625)"/>
       </defs>
       <use xlink:href="#ArialMT-2212"/>
       <use xlink:href="#ArialMT-32" x="58.398438"/>
      </g>
     </g>
    </g>
    <g id="ytick_3">
     <g id="line2d_3">
      <path d="M 34.63 186.623894 
L 1064.88 186.623894 
" clip-path="url(#pd2b5037cfa)" style="fill: none; stroke: #cbcbcb"/>
     </g>
     <g id="text_7">
      <!-- −1 -->
      <g style="fill: #262626" transform="translate(15.088281 190.560691)scale(0.11 -0.11)">
       <defs>
        <path id="ArialMT-31" d="M 2384 0 
L 1822 0 
L 1822 3584 
Q 1619 3391 1289 3197 
Q 959 3003 697 2906 
L 697 3450 
Q 1169 3672 1522 3987 
Q 1875 4303 2022 4600 
L 2384 4600 
L 2384 0 
z
" transform="scale(0.015625)"/>
       </defs>
       <use xlink:href="#ArialMT-2212"/>
       <use xlink:href="#ArialMT-31" x="58.398438"/>
      </g>
     </g>
    </g>
    <g id="ytick_4">
     <g id="line2d_4">
      <path d="M 34.63 159.120837 
L 1064.88 159.120837 
" clip-path="url(#pd2b5037cfa)" style="fill: none; stroke: #cbcbcb"/>
     </g>
     <g id="text_8">
      <!-- 0 -->
      <g style="fill: #262626" transform="translate(21.512969 163.057634)scale(0.11 -0.11)">
       <defs>
        <path id="ArialMT-30" d="M 266 2259 
Q 266 3072 433 3567 
Q 600 4063 929 4331 
Q 1259 4600 1759 4600 
Q 2128 4600 2406 4451 
Q 2684 4303 2865 4023 
Q 3047 3744 3150 3342 
Q 3253 2941 3253 2259 
Q 3253 1453 3087 958 
Q 2922 463 2592 192 
Q 2263 -78 1759 -78 
Q 1097 -78 719 397 
Q 266 969 266 2259 
z
M 844 2259 
Q 844 1131 1108 757 
Q 1372 384 1759 384 
Q 2147 384 2411 759 
Q 2675 1134 2675 2259 
Q 2675 3391 2411 3762 
Q 2147 4134 1753 4134 
Q 1366 4134 1134 3806 
Q 844 3388 844 2259 
z
" transform="scale(0.015625)"/>
       </defs>
       <use xlink:href="#ArialMT-30"/>
      </g>
     </g>
    </g>
    <g id="ytick_5">
     <g id="line2d_5">
      <path d="M 34.63 131.61778 
L 1064.88 131.61778 
" clip-path="url(#pd2b5037cfa)" style="fill: none; stroke: #cbcbcb"/>
     </g>
     <g id="text_9">
      <!-- 1 -->
      <g style="fill: #262626" transform="translate(21.512969 135.554577)scale(0.11 -0.11)">
       <use xlink:href="#ArialMT-31"/>
      </g>
     </g>
    </g>
    <g id="ytick_6">
     <g id="line2d_6">
      <path d="M 34.63 104.114724 
L 1064.88 104.114724 
" clip-path="url(#pd2b5037cfa)" style="fill: none; stroke: #cbcbcb"/>
     </g>
     <g id="text_10">
      <!-- 2 -->
      <g style="fill: #262626" transform="translate(21.512969 108.051521)scale(0.11 -0.11)">
       <use xlink:href="#ArialMT-32"/>
      </g>
     </g>
    </g>
    <g id="ytick_7">
     <g id="line2d_7">
      <path d="M 34.63 76.611667 
L 1064.88 76.611667 
" clip-path="url(#pd2b5037cfa)" style="fill: none; stroke: #cbcbcb"/>
     </g>
     <g id="text_11">
      <!-- 3 -->
      <g style="fill: #262626" transform="translate(21.512969 80.548464)scale(0.11 -0.11)">
       <use xlink:href="#ArialMT-33"/>
      </g>
     </g>
    </g>
    <g id="ytick_8">
     <g id="line2d_8">
      <path d="M 34.63 49.10861 
L 1064.88 49.10861 
" clip-path="url(#pd2b5037cfa)" style="fill: none; stroke: #cbcbcb"/>
     </g>
     <g id="text_12">
      <!-- 4 -->
      <g style="fill: #262626" transform="translate(21.512969 53.045407)scale(0.11 -0.11)">
       <defs>
        <path id="ArialMT-34" d="M 2069 0 
L 2069 1097 
L 81 1097 
L 81 1613 
L 2172 4581 
L 2631 4581 
L 2631 1613 
L 3250 1613 
L 3250 1097 
L 2631 1097 
L 2631 0 
L 2069 0 
z
M 2069 1613 
L 2069 3678 
L 634 1613 
L 2069 1613 
z
" transform="scale(0.015625)"/>
       </defs>
       <use xlink:href="#ArialMT-34"/>
      </g>
     </g>
    </g>
   </g>
   <g id="PolyCollection_1">
    <defs>
     <path id="m3cad862b2b" d="M 164.390527 -57.426886 
L 162.431973 -57.426886 
L 161.995221 -59.042585 
L 161.406502 -60.658284 
L 160.630969 -62.273983 
L 159.63198 -63.889682 
L 158.372787 -65.505381 
L 156.818409 -67.12108 
L 154.937449 -68.736779 
L 152.703617 -70.352478 
L 150.096759 -71.968177 
L 147.103336 -73.583876 
L 143.716414 -75.199575 
L 139.935473 -76.815274 
L 135.76639 -78.430973 
L 131.222058 -80.046672 
L 126.323956 -81.662371 
L 121.104758 -83.27807 
L 115.611714 -84.893769 
L 109.910113 -86.509468 
L 104.085846 -88.125167 
L 98.245891 -89.740866 
L 92.515697 -91.356565 
L 87.032834 -92.972264 
L 81.936984 -94.587963 
L 77.357172 -96.203662 
L 73.397921 -97.819361 
L 70.126575 -99.43506 
L 67.564155 -101.050759 
L 65.681756 -102.666458 
L 64.403601 -104.282157 
L 63.616719 -105.897856 
L 63.1859 -107.513555 
L 62.971552 -109.129254 
L 62.847446 -110.744953 
L 62.715346 -112.360652 
L 62.514152 -113.976351 
L 62.222258 -115.59205 
L 61.853178 -117.207749 
L 61.445792 -118.823448 
L 61.05146 -120.439147 
L 60.720755 -122.054846 
L 60.492385 -123.670545 
L 60.38625 -125.286244 
L 60.401623 -126.901943 
L 60.520334 -128.517642 
L 60.713875 -130.133341 
L 60.952653 -131.74904 
L 61.215347 -133.364739 
L 61.49647 -134.980438 
L 61.810722 -136.596137 
L 62.193467 -138.211836 
L 62.697456 -139.827535 
L 63.386606 -141.443234 
L 64.328152 -143.058933 
L 65.584603 -144.674632 
L 67.206813 -146.290331 
L 69.229096 -147.90603 
L 71.666734 -149.521729 
L 74.515764 -151.137428 
L 77.754501 -152.753127 
L 81.34608 -154.368826 
L 85.241341 -155.984525 
L 89.381586 -157.600224 
L 93.701012 -159.215923 
L 98.128891 -160.831622 
L 102.591696 -162.447321 
L 107.015401 -164.06302 
L 111.328069 -165.678719 
L 115.462674 -167.294418 
L 119.35999 -168.910117 
L 122.971263 -170.525816 
L 126.260438 -172.141515 
L 129.205745 -173.757214 
L 131.800585 -175.372913 
L 134.053679 -176.988612 
L 135.988499 -178.604311 
L 137.641942 -180.22001 
L 139.062186 -181.835709 
L 140.30568 -183.451408 
L 141.433271 -185.067107 
L 142.505642 -186.682806 
L 143.578407 -188.298505 
L 144.6974 -189.914204 
L 145.894774 -191.529903 
L 147.186491 -193.145602 
L 148.571625 -194.761301 
L 150.033614 -196.377 
L 151.543258 -197.992699 
L 153.063017 -199.608398 
L 154.551911 -201.224097 
L 155.970325 -202.839796 
L 157.284064 -204.455495 
L 158.467217 -206.071194 
L 159.503626 -207.686893 
L 160.387007 -209.302592 
L 161.119948 -210.918291 
L 161.712146 -212.53399 
L 162.178275 -214.14969 
L 162.535823 -215.765389 
L 162.803174 -217.381088 
L 164.019326 -217.381088 
L 164.019326 -217.381088 
L 164.286677 -215.765389 
L 164.644225 -214.14969 
L 165.110354 -212.53399 
L 165.702552 -210.918291 
L 166.435493 -209.302592 
L 167.318874 -207.686893 
L 168.355283 -206.071194 
L 169.538436 -204.455495 
L 170.852175 -202.839796 
L 172.270589 -201.224097 
L 173.759483 -199.608398 
L 175.279242 -197.992699 
L 176.788886 -196.377 
L 178.250875 -194.761301 
L 179.636009 -193.145602 
L 180.927726 -191.529903 
L 182.1251 -189.914204 
L 183.244093 -188.298505 
L 184.316858 -186.682806 
L 185.389229 -185.067107 
L 186.51682 -183.451408 
L 187.760314 -181.835709 
L 189.180558 -180.22001 
L 190.834001 -178.604311 
L 192.768821 -176.988612 
L 195.021915 -175.372913 
L 197.616755 -173.757214 
L 200.562062 -172.141515 
L 203.851237 -170.525816 
L 207.46251 -168.910117 
L 211.359826 -167.294418 
L 215.494431 -165.678719 
L 219.807099 -164.06302 
L 224.230804 -162.447321 
L 228.693609 -160.831622 
L 233.121488 -159.215923 
L 237.440914 -157.600224 
L 241.581159 -155.984525 
L 245.47642 -154.368826 
L 249.067999 -152.753127 
L 252.306736 -151.137428 
L 255.155766 -149.521729 
L 257.593404 -147.90603 
L 259.615687 -146.290331 
L 261.237897 -144.674632 
L 262.494348 -143.058933 
L 263.435894 -141.443234 
L 264.125044 -139.827535 
L 264.629033 -138.211836 
L 265.011778 -136.596137 
L 265.32603 -134.980438 
L 265.607153 -133.364739 
L 265.869847 -131.74904 
L 266.108625 -130.133341 
L 266.302166 -128.517642 
L 266.420877 -126.901943 
L 266.43625 -125.286244 
L 266.330115 -123.670545 
L 266.101745 -122.054846 
L 265.77104 -120.439147 
L 265.376708 -118.823448 
L 264.969322 -117.207749 
L 264.600242 -115.59205 
L 264.308348 -113.976351 
L 264.107154 -112.360652 
L 263.975054 -110.744953 
L 263.850948 -109.129254 
L 263.6366 -107.513555 
L 263.205781 -105.897856 
L 262.418899 -104.282157 
L 261.140744 -102.666458 
L 259.258345 -101.050759 
L 256.695925 -99.43506 
L 253.424579 -97.819361 
L 249.465328 -96.203662 
L 244.885516 -94.587963 
L 239.789666 -92.972264 
L 234.306803 -91.356565 
L 228.576609 -89.740866 
L 222.736654 -88.125167 
L 216.912387 -86.509468 
L 211.210786 -84.893769 
L 205.717742 -83.27807 
L 200.498544 -81.662371 
L 195.600442 -80.046672 
L 191.05611 -78.430973 
L 186.887027 -76.815274 
L 183.106086 -75.199575 
L 179.719164 -73.583876 
L 176.725741 -71.968177 
L 174.118883 -70.352478 
L 171.885051 -68.736779 
L 170.004091 -67.12108 
L 168.449713 -65.505381 
L 167.19052 -63.889682 
L 166.191531 -62.273983 
L 165.415998 -60.658284 
L 164.827279 -59.042585 
L 164.390527 -57.426886 
z
" style="stroke: #404040; stroke-width: 3"/>
    </defs>
    <g clip-path="url(#pd2b5037cfa)">
     <use xlink:href="#m3cad862b2b" x="0" y="288" style="fill: #1b86ba; stroke: #404040; stroke-width: 3"/>
    </g>
   </g>
   <g id="PolyCollection_2">
    <defs>
     <path id="mbb931f602b" d="M 421.236992 -41.830909 
L 420.710508 -41.830909 
L 420.581138 -43.776547 
L 420.40465 -45.722185 
L 420.170459 -47.667824 
L 419.867213 -49.613462 
L 419.482694 -51.5591 
L 419.003559 -53.504738 
L 418.415061 -55.450376 
L 417.70103 -57.396015 
L 416.844429 -59.341653 
L 415.828703 -61.287291 
L 414.639911 -63.232929 
L 413.269289 -65.178567 
L 411.715569 -67.124206 
L 409.986305 -69.069844 
L 408.097575 -71.015482 
L 406.071891 -72.96112 
L 403.934689 -74.906758 
L 401.710256 -76.852397 
L 399.418126 -78.798035 
L 397.070737 -80.743673 
L 394.672623 -82.689311 
L 392.220807 -84.634949 
L 389.705658 -86.580588 
L 387.1115 -88.526226 
L 384.41668 -90.471864 
L 381.593414 -92.417502 
L 378.608192 -94.36314 
L 375.423595 -96.308779 
L 372.001959 -98.254417 
L 368.310654 -100.200055 
L 364.328128 -102.145693 
L 360.049715 -104.091331 
L 355.492483 -106.03697 
L 350.699014 -107.982608 
L 345.740463 -109.928246 
L 340.719125 -111.873884 
L 335.770079 -113.819522 
L 331.06038 -115.765161 
L 326.783624 -117.710799 
L 323.147893 -119.656437 
L 320.356554 -121.602075 
L 318.583744 -123.547713 
L 317.94875 -125.493352 
L 318.494975 -127.43899 
L 320.178965 -129.384628 
L 322.873001 -131.330266 
L 326.381601 -133.275904 
L 330.468943 -135.221543 
L 334.891748 -137.167181 
L 339.431076 -139.112819 
L 343.917124 -141.058457 
L 348.24285 -143.004096 
L 352.364797 -144.949734 
L 356.292117 -146.895372 
L 360.067027 -148.84101 
L 363.741481 -150.786648 
L 367.355377 -152.732287 
L 370.921027 -154.677925 
L 374.417029 -156.623563 
L 377.792372 -158.569201 
L 380.979118 -160.514839 
L 383.909996 -162.460478 
L 386.536175 -164.406116 
L 388.840656 -166.351754 
L 390.844033 -168.297392 
L 392.60144 -170.24303 
L 394.191723 -172.188669 
L 395.701752 -174.134307 
L 397.209761 -176.079945 
L 398.771585 -178.025583 
L 400.412626 -179.971221 
L 402.1268 -181.91686 
L 403.881892 -183.862498 
L 405.629339 -185.808136 
L 407.315676 -187.753774 
L 408.89291 -189.699412 
L 410.325828 -191.645051 
L 411.59532 -193.590689 
L 412.697946 -195.536327 
L 413.642828 -197.481965 
L 414.447286 -199.427603 
L 415.132575 -201.373242 
L 415.720622 -203.31888 
L 416.232051 -205.264518 
L 416.685319 -207.210156 
L 417.096471 -209.155794 
L 417.479018 -211.101433 
L 417.843642 -213.047071 
L 418.197711 -214.992709 
L 418.544816 -216.938347 
L 418.884657 -218.883985 
L 419.21348 -220.829624 
L 419.525117 -222.775262 
L 419.812437 -224.7209 
L 420.068876 -226.666538 
L 420.28971 -228.612176 
L 420.472806 -230.557815 
L 420.618775 -232.503453 
L 420.730583 -234.449091 
L 421.216917 -234.449091 
L 421.216917 -234.449091 
L 421.328725 -232.503453 
L 421.474694 -230.557815 
L 421.65779 -228.612176 
L 421.878624 -226.666538 
L 422.135063 -224.7209 
L 422.422383 -222.775262 
L 422.73402 -220.829624 
L 423.062843 -218.883985 
L 423.402684 -216.938347 
L 423.749789 -214.992709 
L 424.103858 -213.047071 
L 424.468482 -211.101433 
L 424.851029 -209.155794 
L 425.262181 -207.210156 
L 425.715449 -205.264518 
L 426.226878 -203.31888 
L 426.814925 -201.373242 
L 427.500214 -199.427603 
L 428.304672 -197.481965 
L 429.249554 -195.536327 
L 430.35218 -193.590689 
L 431.621672 -191.645051 
L 433.05459 -189.699412 
L 434.631824 -187.753774 
L 436.318161 -185.808136 
L 438.065608 -183.862498 
L 439.8207 -181.91686 
L 441.534874 -179.971221 
L 443.175915 -178.025583 
L 444.737739 -176.079945 
L 446.245748 -174.134307 
L 447.755777 -172.188669 
L 449.34606 -170.24303 
L 451.103467 -168.297392 
L 453.106844 -166.351754 
L 455.411325 -164.406116 
L 458.037504 -162.460478 
L 460.968382 -160.514839 
L 464.155128 -158.569201 
L 467.530471 -156.623563 
L 471.026473 -154.677925 
L 474.592123 -152.732287 
L 478.206019 -150.786648 
L 481.880473 -148.84101 
L 485.655383 -146.895372 
L 489.582703 -144.949734 
L 493.70465 -143.004096 
L 498.030376 -141.058457 
L 502.516424 -139.112819 
L 507.055752 -137.167181 
L 511.478557 -135.221543 
L 515.565899 -133.275904 
L 519.074499 -131.330266 
L 521.768535 -129.384628 
L 523.452525 -127.43899 
L 523.99875 -125.493352 
L 523.363756 -123.547713 
L 521.590946 -121.602075 
L 518.799607 -119.656437 
L 515.163876 -117.710799 
L 510.88712 -115.765161 
L 506.177421 -113.819522 
L 501.228375 -111.873884 
L 496.207037 -109.928246 
L 491.248486 -107.982608 
L 486.455017 -106.03697 
L 481.897785 -104.091331 
L 477.619372 -102.145693 
L 473.636846 -100.200055 
L 469.945541 -98.254417 
L 466.523905 -96.308779 
L 463.339308 -94.36314 
L 460.354086 -92.417502 
L 457.53082 -90.471864 
L 454.836 -88.526226 
L 452.241842 -86.580588 
L 449.726693 -84.634949 
L 447.274877 -82.689311 
L 444.876763 -80.743673 
L 442.529374 -78.798035 
L 440.237244 -76.852397 
L 438.012811 -74.906758 
L 435.875609 -72.96112 
L 433.849925 -71.015482 
L 431.961195 -69.069844 
L 430.231931 -67.124206 
L 428.678211 -65.178567 
L 427.307589 -63.232929 
L 426.118797 -61.287291 
L 425.103071 -59.341653 
L 424.24647 -57.396015 
L 423.532439 -55.450376 
L 422.943941 -53.504738 
L 422.464806 -51.5591 
L 422.080287 -49.613462 
L 421.777041 -47.667824 
L 421.54285 -45.722185 
L 421.366362 -43.776547 
L 421.236992 -41.830909 
z
" style="stroke: #404040; stroke-width: 3"/>
    </defs>
    <g clip-path="url(#pd2b5037cfa)">
     <use xlink:href="#mbb931f602b" x="0" y="288" style="fill: #e36149; stroke: #404040; stroke-width: 3"/>
    </g>
   </g>
   <g id="PolyCollection_3">
    <defs>
     <path id="m6152952e36" d="M 681.135787 -65.685585 
L 675.936713 -65.685585 
L 674.929216 -67.022474 
L 673.612058 -68.359363 
L 671.922547 -69.696252 
L 669.796999 -71.033141 
L 667.175207 -72.370029 
L 664.006048 -73.706918 
L 660.253994 -75.043807 
L 655.906063 -76.380696 
L 650.978569 -77.717585 
L 645.522881 -79.054474 
L 639.62934 -80.391363 
L 633.428489 -81.728252 
L 627.088983 -83.065141 
L 620.811763 -84.40203 
L 614.820543 -85.738919 
L 609.349039 -87.075808 
L 604.625869 -88.412697 
L 600.858402 -89.749586 
L 598.2171 -91.086475 
L 596.821929 -92.423364 
L 596.732304 -93.760253 
L 597.941643 -95.097142 
L 600.377154 -96.434031 
L 603.904842 -97.77092 
L 608.339184 -99.107809 
L 613.456384 -100.444697 
L 619.009798 -101.781586 
L 624.745941 -103.118475 
L 630.419573 -104.455364 
L 635.806574 -105.792253 
L 640.713709 -107.129142 
L 644.98483 -108.466031 
L 648.503495 -109.80292 
L 651.192388 -111.139809 
L 653.010203 -112.476698 
L 653.946799 -113.813587 
L 654.017497 -115.150476 
L 653.257283 -116.487365 
L 651.71553 -117.824254 
L 649.451669 -119.161143 
L 646.531991 -120.498032 
L 643.0276 -121.834921 
L 639.013362 -123.17181 
L 634.567578 -124.508699 
L 629.772098 -125.845588 
L 624.712527 -127.182477 
L 619.47827 -128.519365 
L 614.162191 -129.856254 
L 608.859755 -131.193143 
L 603.667622 -132.530032 
L 598.681722 -133.866921 
L 593.994933 -135.20381 
L 589.694529 -136.540699 
L 585.859594 -137.877588 
L 582.558617 -139.214477 
L 579.847455 -140.551366 
L 577.767846 -141.888255 
L 576.346569 -143.225144 
L 575.595315 -144.562033 
L 575.51125 -145.898922 
L 576.078203 -147.235811 
L 577.268326 -148.5727 
L 579.044065 -149.909589 
L 581.360257 -151.246478 
L 584.166156 -152.583367 
L 587.407263 -153.920256 
L 591.026847 -155.257145 
L 594.967125 -156.594034 
L 599.17014 -157.930922 
L 603.578396 -159.267811 
L 608.135346 -160.6047 
L 612.785863 -161.941589 
L 617.476745 -163.278478 
L 622.157324 -164.615367 
L 626.780166 -165.952256 
L 631.30183 -167.289145 
L 635.683587 -168.626034 
L 639.892044 -169.962923 
L 643.899561 -171.299812 
L 647.684424 -172.636701 
L 651.230754 -173.97359 
L 654.528165 -175.310479 
L 657.571234 -176.647368 
L 660.358852 -177.984257 
L 662.893544 -179.321146 
L 665.180823 -180.658035 
L 667.228627 -181.994924 
L 669.046869 -183.331813 
L 670.647092 -184.668702 
L 672.0422 -186.00559 
L 673.246242 -187.342479 
L 674.274202 -188.679368 
L 675.141769 -190.016257 
L 675.865076 -191.353146 
L 676.460394 -192.690035 
L 676.943805 -194.026924 
L 677.330871 -195.363813 
L 677.636318 -196.700702 
L 677.873771 -198.037591 
L 679.198729 -198.037591 
L 679.198729 -198.037591 
L 679.436182 -196.700702 
L 679.741629 -195.363813 
L 680.128695 -194.026924 
L 680.612106 -192.690035 
L 681.207424 -191.353146 
L 681.930731 -190.016257 
L 682.798298 -188.679368 
L 683.826258 -187.342479 
L 685.0303 -186.00559 
L 686.425408 -184.668702 
L 688.025631 -183.331813 
L 689.843873 -181.994924 
L 691.891677 -180.658035 
L 694.178956 -179.321146 
L 696.713648 -177.984257 
L 699.501266 -176.647368 
L 702.544335 -175.310479 
L 705.841746 -173.97359 
L 709.388076 -172.636701 
L 713.172939 -171.299812 
L 717.180456 -169.962923 
L 721.388913 -168.626034 
L 725.77067 -167.289145 
L 730.292334 -165.952256 
L 734.915176 -164.615367 
L 739.595755 -163.278478 
L 744.286637 -161.941589 
L 748.937154 -160.6047 
L 753.494104 -159.267811 
L 757.90236 -157.930922 
L 762.105375 -156.594034 
L 766.045653 -155.257145 
L 769.665237 -153.920256 
L 772.906344 -152.583367 
L 775.712243 -151.246478 
L 778.028435 -149.909589 
L 779.804174 -148.5727 
L 780.994297 -147.235811 
L 781.56125 -145.898922 
L 781.477185 -144.562033 
L 780.725931 -143.225144 
L 779.304654 -141.888255 
L 777.225045 -140.551366 
L 774.513883 -139.214477 
L 771.212906 -137.877588 
L 767.377971 -136.540699 
L 763.077567 -135.20381 
L 758.390778 -133.866921 
L 753.404878 -132.530032 
L 748.212745 -131.193143 
L 742.910309 -129.856254 
L 737.59423 -128.519365 
L 732.359973 -127.182477 
L 727.300402 -125.845588 
L 722.504922 -124.508699 
L 718.059138 -123.17181 
L 714.0449 -121.834921 
L 710.540509 -120.498032 
L 707.620831 -119.161143 
L 705.35697 -117.824254 
L 703.815217 -116.487365 
L 703.055003 -115.150476 
L 703.125701 -113.813587 
L 704.062297 -112.476698 
L 705.880112 -111.139809 
L 708.569005 -109.80292 
L 712.08767 -108.466031 
L 716.358791 -107.129142 
L 721.265926 -105.792253 
L 726.652927 -104.455364 
L 732.326559 -103.118475 
L 738.062702 -101.781586 
L 743.616116 -100.444697 
L 748.733316 -99.107809 
L 753.167658 -97.77092 
L 756.695346 -96.434031 
L 759.130857 -95.097142 
L 760.340196 -93.760253 
L 760.250571 -92.423364 
L 758.8554 -91.086475 
L 756.214098 -89.749586 
L 752.446631 -88.412697 
L 747.723461 -87.075808 
L 742.251957 -85.738919 
L 736.260737 -84.40203 
L 729.983517 -83.065141 
L 723.644011 -81.728252 
L 717.44316 -80.391363 
L 711.549619 -79.054474 
L 706.093931 -77.717585 
L 701.166437 -76.380696 
L 696.818506 -75.043807 
L 693.066452 -73.706918 
L 689.897293 -72.370029 
L 687.275501 -71.033141 
L 685.149953 -69.696252 
L 683.460442 -68.359363 
L 682.143284 -67.022474 
L 681.135787 -65.685585 
z
" style="stroke: #404040; stroke-width: 3"/>
    </defs>
    <g clip-path="url(#pd2b5037cfa)">
     <use xlink:href="#m6152952e36" x="0" y="288" style="fill: #cfa64e; stroke: #404040; stroke-width: 3"/>
    </g>
   </g>
   <g id="PolyCollection_4">
    <defs>
     <path id="mb6ed50c249" d="M 941.756096 -69.092403 
L 930.441404 -69.092403 
L 928.587248 -70.373992 
L 926.276028 -71.655581 
L 923.447347 -72.93717 
L 920.04935 -74.218759 
L 916.044573 -75.500347 
L 911.416167 -76.781936 
L 906.173951 -78.063525 
L 900.359675 -79.345114 
L 894.050773 -80.626703 
L 887.361967 -81.908291 
L 880.444153 -83.18988 
L 873.480222 -84.471469 
L 866.677767 -85.753058 
L 860.258926 -87.034647 
L 854.447986 -88.316235 
L 849.45764 -89.597824 
L 845.475035 -90.879413 
L 842.648816 -92.161002 
L 841.07837 -93.442591 
L 840.806251 -94.72418 
L 841.814491 -96.005768 
L 844.025127 -97.287357 
L 847.304828 -98.568946 
L 851.473149 -99.850535 
L 856.313603 -101.132124 
L 861.586526 -102.413712 
L 867.042631 -103.695301 
L 872.436179 -104.97689 
L 877.536843 -106.258479 
L 882.139577 -107.540068 
L 886.072042 -108.821656 
L 889.199449 -110.103245 
L 891.42689 -111.384834 
L 892.699429 -112.666423 
L 893.000372 -113.948012 
L 892.348146 -115.2296 
L 890.792264 -116.511189 
L 888.408774 -117.792778 
L 885.295505 -119.074367 
L 881.567327 -120.355956 
L 877.35156 -121.637545 
L 872.783546 -122.919133 
L 868.002386 -124.200722 
L 863.14678 -125.482311 
L 858.350957 -126.7639 
L 853.740682 -128.045489 
L 849.429418 -129.327077 
L 845.514786 -130.608666 
L 842.075495 -131.890255 
L 839.168998 -133.171844 
L 836.830089 -134.453433 
L 835.070644 -135.735021 
L 833.88062 -137.01661 
L 833.230312 -138.298199 
L 833.07375 -139.579788 
L 833.35297 -140.861377 
L 834.002832 -142.142965 
L 834.955948 -143.424554 
L 836.14732 -144.706143 
L 837.518293 -145.987732 
L 839.019555 -147.269321 
L 840.613012 -148.55091 
L 842.272528 -149.832498 
L 843.983617 -151.114087 
L 845.742311 -152.395676 
L 847.553447 -153.677265 
L 849.428649 -154.958854 
L 851.384248 -156.240442 
L 853.439317 -157.522031 
L 855.613923 -158.80362 
L 857.927622 -160.085209 
L 860.398175 -161.366798 
L 863.040415 -162.648386 
L 865.865215 -163.929975 
L 868.878506 -165.211564 
L 872.080368 -166.493153 
L 875.464212 -167.774742 
L 879.016172 -169.05633 
L 882.714792 -170.337919 
L 886.531117 -171.619508 
L 890.429272 -172.901097 
L 894.367544 -174.182686 
L 898.299957 -175.464275 
L 902.178228 -176.745863 
L 905.953987 -178.027452 
L 909.58106 -179.309041 
L 913.017644 -180.59063 
L 916.228183 -181.872219 
L 919.184806 -183.153807 
L 921.868228 -184.435396 
L 924.268067 -185.716985 
L 926.3826 -186.998574 
L 928.218029 -188.280163 
L 929.787346 -189.561751 
L 931.108951 -190.84334 
L 932.205133 -192.124929 
L 933.100562 -193.406518 
L 933.820885 -194.688107 
L 934.391511 -195.969695 
L 937.805989 -195.969695 
L 937.805989 -195.969695 
L 938.376615 -194.688107 
L 939.096938 -193.406518 
L 939.992367 -192.124929 
L 941.088549 -190.84334 
L 942.410154 -189.561751 
L 943.979471 -188.280163 
L 945.8149 -186.998574 
L 947.929433 -185.716985 
L 950.329272 -184.435396 
L 953.012694 -183.153807 
L 955.969317 -181.872219 
L 959.179856 -180.59063 
L 962.61644 -179.309041 
L 966.243513 -178.027452 
L 970.019272 -176.745863 
L 973.897543 -175.464275 
L 977.829956 -174.182686 
L 981.768228 -172.901097 
L 985.666383 -171.619508 
L 989.482708 -170.337919 
L 993.181328 -169.05633 
L 996.733288 -167.774742 
L 1000.117132 -166.493153 
L 1003.318994 -165.211564 
L 1006.332285 -163.929975 
L 1009.157085 -162.648386 
L 1011.799325 -161.366798 
L 1014.269878 -160.085209 
L 1016.583577 -158.80362 
L 1018.758183 -157.522031 
L 1020.813252 -156.240442 
L 1022.768851 -154.958854 
L 1024.644053 -153.677265 
L 1026.455189 -152.395676 
L 1028.213883 -151.114087 
L 1029.924972 -149.832498 
L 1031.584488 -148.55091 
L 1033.177945 -147.269321 
L 1034.679207 -145.987732 
L 1036.05018 -144.706143 
L 1037.241552 -143.424554 
L 1038.194668 -142.142965 
L 1038.84453 -140.861377 
L 1039.12375 -139.579788 
L 1038.967188 -138.298199 
L 1038.31688 -137.01661 
L 1037.126856 -135.735021 
L 1035.367411 -134.453433 
L 1033.028502 -133.171844 
L 1030.122005 -131.890255 
L 1026.682714 -130.608666 
L 1022.768082 -129.327077 
L 1018.456818 -128.045489 
L 1013.846543 -126.7639 
L 1009.05072 -125.482311 
L 1004.195114 -124.200722 
L 999.413954 -122.919133 
L 994.84594 -121.637545 
L 990.630173 -120.355956 
L 986.901995 -119.074367 
L 983.788726 -117.792778 
L 981.405236 -116.511189 
L 979.849354 -115.2296 
L 979.197128 -113.948012 
L 979.498071 -112.666423 
L 980.77061 -111.384834 
L 982.998051 -110.103245 
L 986.125458 -108.821656 
L 990.057923 -107.540068 
L 994.660657 -106.258479 
L 999.761321 -104.97689 
L 1005.154869 -103.695301 
L 1010.610974 -102.413712 
L 1015.883897 -101.132124 
L 1020.724351 -99.850535 
L 1024.892672 -98.568946 
L 1028.172373 -97.287357 
L 1030.383009 -96.005768 
L 1031.391249 -94.72418 
L 1031.11913 -93.442591 
L 1029.548684 -92.161002 
L 1026.722465 -90.879413 
L 1022.73986 -89.597824 
L 1017.749514 -88.316235 
L 1011.938574 -87.034647 
L 1005.519733 -85.753058 
L 998.717278 -84.471469 
L 991.753347 -83.18988 
L 984.835533 -81.908291 
L 978.146727 -80.626703 
L 971.837825 -79.345114 
L 966.023549 -78.063525 
L 960.781333 -76.781936 
L 956.152927 -75.500347 
L 952.14815 -74.218759 
L 948.750153 -72.93717 
L 945.921472 -71.655581 
L 943.610252 -70.373992 
L 941.756096 -69.092403 
z
" style="stroke: #404040; stroke-width: 3"/>
    </defs>
    <g clip-path="url(#pd2b5037cfa)">
     <use xlink:href="#mb6ed50c249" x="0" y="288" style="fill: #6e8857; stroke: #404040; stroke-width: 3"/>
    </g>
   </g>
   <g id="line2d_9">
    <path d="M 163.41125 210.380492 
L 163.41125 90.811534 
" clip-path="url(#pd2b5037cfa)" style="fill: none; stroke: #404040; stroke-width: 3"/>
   </g>
   <g id="line2d_10">
    <path d="M 163.41125 183.809613 
L 163.41125 140.631933 
" clip-path="url(#pd2b5037cfa)" style="fill: none; stroke: #404040; stroke-width: 9"/>
   </g>
   <g id="line2d_11">
    <path d="M 420.97375 213.290391 
L 420.97375 99.115687 
" clip-path="url(#pd2b5037cfa)" style="fill: none; stroke: #404040; stroke-width: 3"/>
   </g>
   <g id="line2d_12">
    <path d="M 420.97375 175.232156 
L 420.97375 143.516961 
" clip-path="url(#pd2b5037cfa)" style="fill: none; stroke: #404040; stroke-width: 9"/>
   </g>
   <g id="line2d_13">
    <path d="M 678.53625 202.121794 
L 678.53625 110.155031 
" clip-path="url(#pd2b5037cfa)" style="fill: none; stroke: #404040; stroke-width: 3"/>
   </g>
   <g id="line2d_14">
    <path d="M 678.53625 192.769241 
L 678.53625 138.212687 
" clip-path="url(#pd2b5037cfa)" style="fill: none; stroke: #404040; stroke-width: 9"/>
   </g>
   <g id="line2d_15">
    <path d="M 936.09875 198.714975 
L 936.09875 112.222926 
" clip-path="url(#pd2b5037cfa)" style="fill: none; stroke: #404040; stroke-width: 3"/>
   </g>
   <g id="line2d_16">
    <path d="M 936.09875 191.507304 
L 936.09875 137.449774 
" clip-path="url(#pd2b5037cfa)" style="fill: none; stroke: #404040; stroke-width: 9"/>
   </g>
   <g id="patch_3">
    <path d="M 34.63 255.8 
L 34.63 43.92 
" style="fill: none; stroke: #f0f0f0; stroke-width: 3; stroke-linejoin: miter; stroke-linecap: square"/>
   </g>
   <g id="patch_4">
    <path d="M 1064.88 255.8 
L 1064.88 43.92 
" style="fill: none; stroke: #f0f0f0; stroke-width: 3; stroke-linejoin: miter; stroke-linecap: square"/>
   </g>
   <g id="patch_5">
    <path d="M 34.63 255.8 
L 1064.88 255.8 
" style="fill: none; stroke: #f0f0f0; stroke-width: 3; stroke-linejoin: miter; stroke-linecap: square"/>
   </g>
   <g id="patch_6">
    <path d="M 34.63 43.92 
L 1064.88 43.92 
" style="fill: none; stroke: #f0f0f0; stroke-width: 3; stroke-linejoin: miter; stroke-linecap: square"/>
   </g>
   <g id="PathCollection_1">
    <defs>
     <path id="m088a33fc03" d="M 0 3 
C 0.795609 3 1.55874 2.683901 2.12132 2.12132 
C 2.683901 1.55874 3 0.795609 3 0 
C 3 -0.795609 2.683901 -1.55874 2.12132 -2.12132 
C 1.55874 -2.683901 0.795609 -3 0 -3 
C -0.795609 -3 -1.55874 -2.683901 -2.12132 -2.12132 
C -2.683901 -1.55874 -3 -0.795609 -3 0 
C -3 0.795609 -2.683901 1.55874 -2.12132 2.12132 
C -1.55874 2.683901 -0.795609 3 0 3 
z
" style="stroke: #404040; stroke-width: 0.5"/>
    </defs>
    <g clip-path="url(#pd2b5037cfa)">
     <use xlink:href="#m088a33fc03" x="163.41125" y="160.560093" style="fill: #ffffff; stroke: #404040; stroke-width: 0.5"/>
    </g>
   </g>
   <g id="PathCollection_2">
    <g clip-path="url(#pd2b5037cfa)">
     <use xlink:href="#m088a33fc03" x="420.97375" y="162.546078" style="fill: #ffffff; stroke: #404040; stroke-width: 0.5"/>
    </g>
   </g>
   <g id="PathCollection_3">
    <g clip-path="url(#pd2b5037cfa)">
     <use xlink:href="#m088a33fc03" x="678.53625" y="149.903377" style="fill: #ffffff; stroke: #404040; stroke-width: 0.5"/>
    </g>
   </g>
   <g id="PathCollection_4">
    <g clip-path="url(#pd2b5037cfa)">
     <use xlink:href="#m088a33fc03" x="936.09875" y="155.468951" style="fill: #ffffff; stroke: #404040; stroke-width: 0.5"/>
    </g>
   </g>
  </g>
  <g id="text_13">
   <!-- Violin Plot of all Continuous Variables -->
   <g style="fill: #262626" transform="translate(416.035547 16.496719)scale(0.15 -0.15)">
    <defs>
     <path id="ArialMT-56" d="M 1803 0 
L 28 4581 
L 684 4581 
L 1875 1253 
Q 2019 853 2116 503 
Q 2222 878 2363 1253 
L 3600 4581 
L 4219 4581 
L 2425 0 
L 1803 0 
z
" transform="scale(0.015625)"/>
     <path id="ArialMT-6f" d="M 213 1659 
Q 213 2581 725 3025 
Q 1153 3394 1769 3394 
Q 2453 3394 2887 2945 
Q 3322 2497 3322 1706 
Q 3322 1066 3130 698 
Q 2938 331 2570 128 
Q 2203 -75 1769 -75 
Q 1072 -75 642 372 
Q 213 819 213 1659 
z
M 791 1659 
Q 791 1022 1069 705 
Q 1347 388 1769 388 
Q 2188 388 2466 706 
Q 2744 1025 2744 1678 
Q 2744 2294 2464 2611 
Q 2184 2928 1769 2928 
Q 1347 2928 1069 2612 
Q 791 2297 791 1659 
z
" transform="scale(0.015625)"/>
     <path id="ArialMT-20" transform="scale(0.015625)"/>
     <path id="ArialMT-66" d="M 556 0 
L 556 2881 
L 59 2881 
L 59 3319 
L 556 3319 
L 556 3672 
Q 556 4006 616 4169 
Q 697 4388 901 4523 
Q 1106 4659 1475 4659 
Q 1713 4659 2000 4603 
L 1916 4113 
Q 1741 4144 1584 4144 
Q 1328 4144 1222 4034 
Q 1116 3925 1116 3625 
L 1116 3319 
L 1763 3319 
L 1763 2881 
L 1116 2881 
L 1116 0 
L 556 0 
z
" transform="scale(0.015625)"/>
     <path id="ArialMT-75" d="M 2597 0 
L 2597 488 
Q 2209 -75 1544 -75 
Q 1250 -75 995 37 
Q 741 150 617 320 
Q 494 491 444 738 
Q 409 903 409 1263 
L 409 3319 
L 972 3319 
L 972 1478 
Q 972 1038 1006 884 
Q 1059 663 1231 536 
Q 1403 409 1656 409 
Q 1909 409 2131 539 
Q 2353 669 2445 892 
Q 2538 1116 2538 1541 
L 2538 3319 
L 3100 3319 
L 3100 0 
L 2597 0 
z
" transform="scale(0.015625)"/>
     <path id="ArialMT-73" d="M 197 991 
L 753 1078 
Q 800 744 1014 566 
Q 1228 388 1613 388 
Q 2000 388 2187 545 
Q 2375 703 2375 916 
Q 2375 1106 2209 1216 
Q 2094 1291 1634 1406 
Q 1016 1563 777 1677 
Q 538 1791 414 1992 
Q 291 2194 291 2438 
Q 291 2659 392 2848 
Q 494 3038 669 3163 
Q 800 3259 1026 3326 
Q 1253 3394 1513 3394 
Q 1903 3394 2198 3281 
Q 2494 3169 2634 2976 
Q 2775 2784 2828 2463 
L 2278 2388 
Q 2241 2644 2061 2787 
Q 1881 2931 1553 2931 
Q 1166 2931 1000 2803 
Q 834 2675 834 2503 
Q 834 2394 903 2306 
Q 972 2216 1119 2156 
Q 1203 2125 1616 2013 
Q 2213 1853 2448 1751 
Q 2684 1650 2818 1456 
Q 2953 1263 2953 975 
Q 2953 694 2789 445 
Q 2625 197 2315 61 
Q 2006 -75 1616 -75 
Q 969 -75 630 194 
Q 291 463 197 991 
z
" transform="scale(0.015625)"/>
     <path id="ArialMT-72" d="M 416 0 
L 416 3319 
L 922 3319 
L 922 2816 
Q 1116 3169 1280 3281 
Q 1444 3394 1641 3394 
Q 1925 3394 2219 3213 
L 2025 2691 
Q 1819 2813 1613 2813 
Q 1428 2813 1281 2702 
Q 1134 2591 1072 2394 
Q 978 2094 978 1738 
L 978 0 
L 416 0 
z
" transform="scale(0.015625)"/>
     <path id="ArialMT-62" d="M 941 0 
L 419 0 
L 419 4581 
L 981 4581 
L 981 2947 
Q 1338 3394 1891 3394 
Q 2197 3394 2470 3270 
Q 2744 3147 2920 2923 
Q 3097 2700 3197 2384 
Q 3297 2069 3297 1709 
Q 3297 856 2875 390 
Q 2453 -75 1863 -75 
Q 1275 -75 941 416 
L 941 0 
z
M 934 1684 
Q 934 1088 1097 822 
Q 1363 388 1816 388 
Q 2184 388 2453 708 
Q 2722 1028 2722 1663 
Q 2722 2313 2464 2622 
Q 2206 2931 1841 2931 
Q 1472 2931 1203 2611 
Q 934 2291 934 1684 
z
" transform="scale(0.015625)"/>
    </defs>
    <use xlink:href="#ArialMT-56"/>
    <use xlink:href="#ArialMT-69" x="64.949219"/>
    <use xlink:href="#ArialMT-6f" x="87.166016"/>
    <use xlink:href="#ArialMT-6c" x="142.78125"/>
    <use xlink:href="#ArialMT-69" x="164.998047"/>
    <use xlink:href="#ArialMT-6e" x="187.214844"/>
    <use xlink:href="#ArialMT-20" x="242.830078"/>
    <use xlink:href="#ArialMT-50" x="270.613281"/>
    <use xlink:href="#ArialMT-6c" x="337.3125"/>
    <use xlink:href="#ArialMT-6f" x="359.529297"/>
    <use xlink:href="#ArialMT-74" x="415.144531"/>
    <use xlink:href="#ArialMT-20" x="442.927734"/>
    <use xlink:href="#ArialMT-6f" x="470.710938"/>
    <use xlink:href="#ArialMT-66" x="526.326172"/>
    <use xlink:href="#ArialMT-20" x="554.109375"/>
    <use xlink:href="#ArialMT-61" x="581.892578"/>
    <use xlink:href="#ArialMT-6c" x="637.507812"/>
    <use xlink:href="#ArialMT-6c" x="659.724609"/>
    <use xlink:href="#ArialMT-20" x="681.941406"/>
    <use xlink:href="#ArialMT-43" x="709.724609"/>
    <use xlink:href="#ArialMT-6f" x="781.941406"/>
    <use xlink:href="#ArialMT-6e" x="837.556641"/>
    <use xlink:href="#ArialMT-74" x="893.171875"/>
    <use xlink:href="#ArialMT-69" x="920.955078"/>
    <use xlink:href="#ArialMT-6e" x="943.171875"/>
    <use xlink:href="#ArialMT-75" x="998.787109"/>
    <use xlink:href="#ArialMT-6f" x="1054.402344"/>
    <use xlink:href="#ArialMT-75" x="1110.017578"/>
    <use xlink:href="#ArialMT-73" x="1165.632812"/>
    <use xlink:href="#ArialMT-20" x="1215.632812"/>
    <use xlink:href="#ArialMT-56" x="1243.416016"/>
    <use xlink:href="#ArialMT-61" x="1302.740234"/>
    <use xlink:href="#ArialMT-72" x="1358.355469"/>
    <use xlink:href="#ArialMT-69" x="1391.65625"/>
    <use xlink:href="#ArialMT-61" x="1413.873047"/>
    <use xlink:href="#ArialMT-62" x="1469.488281"/>
    <use xlink:href="#ArialMT-6c" x="1525.103516"/>
    <use xlink:href="#ArialMT-65" x="1547.320312"/>
    <use xlink:href="#ArialMT-73" x="1602.935547"/>
   </g>
  </g>
 </g>
 <defs>
  <clipPath id="pd2b5037cfa">
   <rect x="34.63" y="43.92" width="1030.25" height="211.88"/>
  </clipPath>
 </defs>
</svg>
